<svg width="19" height="19" viewBox="0 0 19 19" fill="none" xmlns="http://www.w3.org/2000/svg">
<path d="M9.5 1.1875C10.3998 1.1875 11.2628 1.50028 11.8991 2.05703C12.5354 2.61378 12.8929 3.36889 12.8929 4.15625V4.75H6.10714V4.15625C6.10714 3.36889 6.4646 2.61378 7.10089 2.05703C7.73717 1.50028 8.60016 1.1875 9.5 1.1875ZM14.25 4.75V4.15625C14.25 3.05394 13.7496 1.99679 12.8588 1.21734C11.968 0.437889 10.7598 0 9.5 0C8.24022 0 7.03204 0.437889 6.14124 1.21734C5.25044 1.99679 4.75 3.05394 4.75 4.15625V4.75H0V16.625C0 17.2549 0.285969 17.859 0.794996 18.3044C1.30402 18.7498 1.99441 19 2.71429 19H16.2857C17.0056 19 17.696 18.7498 18.205 18.3044C18.714 17.859 19 17.2549 19 16.625V4.75H14.25ZM1.35714 5.9375H17.6429V16.625C17.6429 16.9399 17.4999 17.242 17.2454 17.4647C16.9908 17.6874 16.6457 17.8125 16.2857 17.8125H2.71429C2.35435 17.8125 2.00915 17.6874 1.75464 17.4647C1.50013 17.242 1.35714 16.9399 1.35714 16.625V5.9375Z" fill="white"/>
</svg>
